# xmcd
#
# Track frame offsets:
#	150
#	17617
#	35196
#	52062
#	70097
#	87954
#	104612
#	121062
#	140239
#	156041
#	176762
#
# Disc length: 2616 seconds
# Revision: 0
# Processed by: cddbd v1.5.2PL0 Copyright (c) Steve Scherf et al.
# Submitted via: dBpowerAMP V12.0
#
DISCID=9b0a360b
DTITLE=Brad Wilson - Blues Magic
DYEAR=2012
DGENRE=Blues-Rock
TTITLE0=01.Blues Magic
TTITLE1=02.Raining in My Heart
TTITLE2=03.Roll With Me
TTITLE3=04.Hot Stuff
TTITLE4=05.My One Desire
TTITLE5=06.Cryin' Lonely Teardrops
TTITLE6=07.On a Summer Day
TTITLE7=08.Nobody But You
TTITLE8=09.I'm Still Breathin'
TTITLE9=10.The Road Back to You
TTITLE10=11.Wintergreen
EXTD=
EXTT0=
EXTT1=
EXTT2=
EXTT3=
EXTT4=
EXTT5=
EXTT6=
EXTT7=
EXTT8=
EXTT9=
EXTT10=
PLAYORDER=
